<svg xmlns="http://www.w3.org/2000/svg" viewBox="0 0 84 100" width="84" height="100">
  <defs>
    <mask id="perf">
      <rect x="0" y="0" width="84" height="100" fill="white"/>
      <circle cx="4.0" cy="0" r="2.6" fill="black"/>
      <circle cx="4.0" cy="100" r="2.6" fill="black"/>
      <circle cx="12.0" cy="0" r="2.6" fill="black"/>
      <circle cx="12.0" cy="100" r="2.6" fill="black"/>
      <circle cx="20.0" cy="0" r="2.6" fill="black"/>
      <circle cx="20.0" cy="100" r="2.6" fill="black"/>
      <circle cx="28.0" cy="0" r="2.6" fill="black"/>
      <circle cx="28.0" cy="100" r="2.6" fill="black"/>
      <circle cx="36.0" cy="0" r="2.6" fill="black"/>
      <circle cx="36.0" cy="100" r="2.6" fill="black"/>
      <circle cx="44.0" cy="0" r="2.6" fill="black"/>
      <circle cx="44.0" cy="100" r="2.6" fill="black"/>
      <circle cx="52.0" cy="0" r="2.6" fill="black"/>
      <circle cx="52.0" cy="100" r="2.6" fill="black"/>
      <circle cx="60.0" cy="0" r="2.6" fill="black"/>
      <circle cx="60.0" cy="100" r="2.6" fill="black"/>
      <circle cx="68.0" cy="0" r="2.6" fill="black"/>
      <circle cx="68.0" cy="100" r="2.6" fill="black"/>
      <circle cx="76.0" cy="0" r="2.6" fill="black"/>
      <circle cx="76.0" cy="100" r="2.6" fill="black"/>
      <circle cx="0" cy="4.0" r="2.6" fill="black"/>
      <circle cx="84" cy="4.0" r="2.6" fill="black"/>
      <circle cx="0" cy="12.0" r="2.6" fill="black"/>
      <circle cx="84" cy="12.0" r="2.6" fill="black"/>
      <circle cx="0" cy="20.0" r="2.6" fill="black"/>
      <circle cx="84" cy="20.0" r="2.6" fill="black"/>
      <circle cx="0" cy="28.0" r="2.6" fill="black"/>
      <circle cx="84" cy="28.0" r="2.6" fill="black"/>
      <circle cx="0" cy="36.0" r="2.6" fill="black"/>
      <circle cx="84" cy="36.0" r="2.6" fill="black"/>
      <circle cx="0" cy="44.0" r="2.6" fill="black"/>
      <circle cx="84" cy="44.0" r="2.6" fill="black"/>
      <circle cx="0" cy="52.0" r="2.6" fill="black"/>
      <circle cx="84" cy="52.0" r="2.6" fill="black"/>
      <circle cx="0" cy="60.0" r="2.6" fill="black"/>
      <circle cx="84" cy="60.0" r="2.6" fill="black"/>
      <circle cx="0" cy="68.0" r="2.6" fill="black"/>
      <circle cx="84" cy="68.0" r="2.6" fill="black"/>
      <circle cx="0" cy="76.0" r="2.6" fill="black"/>
      <circle cx="84" cy="76.0" r="2.6" fill="black"/>
      <circle cx="0" cy="84.0" r="2.6" fill="black"/>
      <circle cx="84" cy="84.0" r="2.6" fill="black"/>
      <circle cx="0" cy="92.0" r="2.6" fill="black"/>
      <circle cx="84" cy="92.0" r="2.6" fill="black"/>
    </mask>
  </defs>

  <!-- stamp body -->
  <rect x="0" y="0" width="84" height="100" fill="#0A3672" mask="url(#perf)"/>

  <!-- inner frame -->
  <rect x="7" y="8" width="70" height="84" fill="none" stroke="#fff8ec" stroke-width="1.6"/>

  <!-- corner flourish stars -->
  <path d="M13 15 L14.3 18.2 L17.5 18.6 L15 20.8 L15.8 24 L13 22.2 L10.2 24 L11 20.8 L8.5 18.6 L11.7 18.2 Z" fill="#fff8ec"/>
  <path d="M71 85 L72.3 88.2 L75.5 88.6 L73 90.8 L73.8 94 L71 92.2 L68.2 94 L69 90.8 L66.5 88.6 L69.7 88.2 Z" fill="#fff8ec"/>

  <!-- PK monogram -->
  <text x="42" y="60" font-family="Georgia, 'Times New Roman', serif" font-size="34" font-weight="700" fill="#fff8ec" text-anchor="middle" letter-spacing="-1">PK</text>

  <!-- small divider stars -->
  <path d="M42 66 L42.7 68.1 L44.9 68.1 L43.1 69.4 L43.8 71.5 L42 70.2 L40.2 71.5 L40.9 69.4 L39.1 68.1 L41.3 68.1 Z" fill="#fff8ec" opacity="0.9"/>
</svg>
